<svg width="260" height="67" viewBox="0 0 260 67" fill="none" xmlns="http://www.w3.org/2000/svg">
<path d="M14.6168 66.0328C13.0694 66.111 11.9611 65.832 11.292 65.1958C10.6228 64.5178 10.2882 63.2156 10.2882 61.2893C10.2882 59.9912 10.4137 58.3308 10.6646 56.3081C10.9574 54.2414 11.4174 51.4125 12.0448 47.8214C13.1321 41.192 13.9895 35.4536 14.6168 30.6062C14.9932 27.5722 15.1814 25.0501 15.1814 23.0401C15.1814 21.1557 14.4913 20.2484 13.1112 20.3181C12.0238 20.3731 10.7065 21.005 9.15904 22.2138C7.65344 23.3787 5.98056 25.222 4.14039 27.7437C3.55488 28.569 2.90664 28.9995 2.19566 29.0355C1.61015 29.0651 1.08738 28.8193 0.627331 28.2982C0.209111 27.733 0 27.0945 0 26.3827C0 25.7126 0.125467 25.0363 0.376399 24.3536C0.669153 23.6269 1.1292 22.8081 1.75653 21.897C3.76399 18.9899 6.00147 16.7202 8.46897 15.088C10.9365 13.4139 13.404 12.5145 15.8715 12.3898C18.1717 12.2736 19.9282 12.9176 21.1411 14.322C22.3957 15.7242 23.023 17.8281 23.023 20.6338C23.023 21.7644 22.9185 23.1097 22.7094 24.6697C22.5003 26.1878 22.3121 27.4326 22.1448 28.4042C21.9775 29.3758 21.852 30.0521 21.7684 30.4332C24.1522 23.4871 26.8289 18.5989 29.7982 15.7689C32.7676 12.8969 36.0297 11.3711 39.5846 11.1914C42.303 11.0541 44.4359 11.9094 45.9834 13.7575C47.5726 15.6034 48.3672 18.2852 48.3672 21.8027C48.3672 23.1846 48.179 24.911 47.8026 26.9819C49.8937 21.0974 52.3403 16.8281 55.1424 14.174C57.9445 11.5199 61.1648 10.1009 64.8033 9.91697C67.7308 9.76897 69.9683 10.5982 71.5157 12.4043C73.105 14.2084 73.8996 16.8064 73.8996 20.1983C73.8996 22.0409 73.6277 24.2949 73.0841 26.9606L69.2573 45.1185C68.8391 47.2334 68.63 49.0446 68.63 50.5521C68.63 52.3109 69.0273 53.6099 69.8219 54.4491C70.6584 55.2862 71.8085 55.6678 73.2723 55.5938C74.6524 55.5241 75.9907 54.9958 77.2872 54.0091C78.6255 53.0202 80.1938 51.4124 81.9922 49.1859C82.494 48.5743 83.0586 48.2526 83.686 48.2209C84.2296 48.1935 84.6479 48.4236 84.9406 48.9113C85.2752 49.3969 85.4425 50.0794 85.4425 50.9588C85.4425 52.5919 85.0452 53.9101 84.2505 54.9134C82.0758 57.6615 79.922 59.6966 77.789 61.0188C75.6561 62.3409 73.4186 63.0612 71.0766 63.1796C67.5217 63.3592 64.7406 62.4529 62.7331 60.4606C60.7256 58.4264 59.7219 55.6296 59.7219 52.0701C59.7219 49.5995 60.2238 45.9938 61.2275 41.253L63.7368 29.6314C63.8205 29.2503 63.9669 28.5729 64.176 27.5992C64.3851 26.6255 64.5524 25.7167 64.6778 24.8728C64.8033 23.9871 64.866 23.1255 64.866 22.288C64.866 20.8224 64.5733 19.7484 63.9878 19.0661C63.4441 18.3398 62.6495 18.0031 61.6039 18.0559C59.6383 18.1553 57.5681 19.5371 55.3933 22.2014C53.2604 24.8217 51.2111 29.1128 49.2455 35.0747C47.3217 41.0345 45.7533 48.7351 44.5405 58.1765C44.2477 60.7038 43.725 62.4262 42.9722 63.3436C42.2612 64.217 41.0902 64.695 39.4591 64.7774C38.0372 64.8493 36.9916 64.5671 36.3225 63.9309C35.6951 63.2926 35.3815 62.0522 35.3815 60.2097C35.3815 58.4928 35.6115 56.2408 36.0715 53.4538C36.5316 50.6249 37.1171 47.3081 37.8281 43.5034C39.7519 33.2723 40.7138 26.6911 40.7138 23.7598C40.7138 22.1685 40.4001 21.0119 39.7728 20.2898C39.1873 19.5657 38.2881 19.2342 37.0753 19.2955C35.026 19.3991 32.914 20.6783 30.7392 23.1333C28.5645 25.5463 26.4315 29.7788 24.3404 35.8308C22.2912 41.8388 20.5765 49.9237 19.1963 60.0854C18.9036 62.2358 18.4644 63.7446 17.8789 64.6117C17.3352 65.4767 16.2479 65.9504 14.6168 66.0328ZM112.381 41.4945C112.925 41.467 113.343 41.718 113.636 42.2476C113.929 42.7772 114.075 43.4608 114.075 44.2983C114.075 46.3083 113.469 47.5324 112.256 47.9706C109.747 48.9768 106.986 49.6188 103.975 49.8966C103.181 53.4543 101.612 56.3601 99.2702 58.6141C96.9282 60.8262 94.2725 62.0073 91.3031 62.1574C88.7938 62.2842 86.64 61.7859 84.8416 60.6624C83.0851 59.5367 81.7468 57.9922 80.8267 56.0286C79.9066 54.0651 79.4466 51.9108 79.4466 49.5658C79.4466 46.3833 80.053 43.526 81.2658 40.9941C82.4787 38.4203 84.1515 36.3885 86.2845 34.8989C88.4174 33.3673 90.7803 32.536 93.3733 32.405C96.5518 32.2443 99.1029 33.2251 101.027 35.3473C102.992 37.4255 104.142 40.0683 104.477 43.2758C106.443 43.0509 108.785 42.5137 111.503 41.6645C111.838 41.5638 112.131 41.5071 112.381 41.4945ZM91.805 55.4738C93.1433 55.4062 94.2934 54.8037 95.2553 53.6663C96.259 52.5268 96.9282 50.9227 97.2628 48.8539C95.9663 48.04 94.9626 46.9392 94.2516 45.5513C93.5824 44.1614 93.2478 42.6708 93.2478 41.0795C93.2478 40.4095 93.3106 39.7363 93.436 39.06L93.1224 39.0758C91.4495 39.1604 90.0485 40.0478 88.9193 41.738C87.8319 43.3842 87.2882 45.6729 87.2882 48.6042C87.2882 50.9074 87.7273 52.6439 88.6056 53.8139C89.5257 54.9818 90.5921 55.5351 91.805 55.4738ZM113.145 61.0536C111.556 61.1339 110.427 60.3535 109.757 58.7123C109.13 57.0689 108.816 54.4048 108.816 50.7197C108.816 45.2759 109.59 40.0652 111.138 35.0876C111.514 33.8542 112.12 32.9441 112.957 32.3575C113.835 31.7268 115.048 31.3724 116.595 31.2942C117.432 31.252 118.017 31.3271 118.352 31.5195C118.686 31.712 118.854 32.1014 118.854 32.6876C118.854 33.3576 118.54 34.881 117.913 37.2577C117.495 38.9539 117.16 40.4364 116.909 41.7054C116.658 42.9324 116.449 44.4714 116.282 46.3224C117.411 42.9991 118.749 40.1677 120.297 37.8282C121.886 35.4866 123.496 33.7302 125.127 32.559C126.8 31.3438 128.368 30.6993 129.832 30.6253C131.296 30.5513 132.32 30.8345 132.906 31.475C133.533 32.1133 133.847 33.1234 133.847 34.5052C133.847 35.8453 133.45 38.2941 132.655 41.8518C132.32 43.3762 132.09 44.5185 131.965 45.2786C134.056 40.0222 136.377 36.1571 138.928 33.6831C141.479 31.2092 143.863 29.9162 146.08 29.8042C148.798 29.6668 150.158 30.9591 150.158 33.681C150.158 35.3141 149.697 38.2896 148.777 42.6074C147.983 46.2907 147.585 48.7186 147.585 49.8911C147.585 51.5661 148.192 52.373 149.405 52.3117C150.241 52.2694 151.224 51.7173 152.353 50.6552C153.524 49.5491 155.072 47.7959 156.995 45.3955C157.497 44.7839 158.062 44.4623 158.689 44.4305C159.233 44.4031 159.651 44.6332 159.944 45.1209C160.278 45.6065 160.446 46.289 160.446 47.1684C160.446 48.8434 160.048 50.1616 159.254 51.123C157.455 53.4333 155.511 55.3532 153.42 56.8826C151.37 58.4099 149.028 59.2402 146.394 59.3733C144.261 59.4811 142.65 58.9553 141.563 57.7959C140.476 56.5945 139.932 54.8214 139.932 52.4764C139.932 51.3038 140.225 49.1953 140.81 46.1507C141.354 43.485 141.626 41.6497 141.626 40.6447C141.626 39.9747 141.396 39.6513 140.936 39.6746C140.392 39.702 139.618 40.453 138.615 41.9275C137.611 43.3601 136.607 45.2534 135.603 47.6072C134.6 49.9611 133.784 52.4311 133.157 55.0172C132.697 57.0505 132.153 58.418 131.526 59.1197C130.94 59.8193 129.978 60.2029 128.64 60.2705C127.26 60.3403 126.214 59.744 125.503 58.4818C124.834 57.1756 124.5 55.5803 124.5 53.6959C124.5 52.1047 124.709 49.791 125.127 46.7548C125.462 44.0579 125.629 42.2906 125.629 41.4531C125.629 40.7831 125.399 40.4597 124.939 40.483C124.312 40.5147 123.517 41.3086 122.555 42.8647C121.593 44.4209 120.652 46.3947 119.732 48.7862C118.854 51.1756 118.143 53.5147 117.599 55.8034C117.139 57.7948 116.595 59.1623 115.968 59.9059C115.382 60.6055 114.441 60.9881 113.145 61.0536ZM183.352 43.1842C183.896 43.1567 184.314 43.3868 184.607 43.8745C184.941 44.3601 185.109 45.0426 185.109 45.922C185.109 47.597 184.711 48.9152 183.917 49.8766C182.369 51.8392 180.174 53.688 177.33 55.423C174.528 57.1559 171.517 58.1037 168.296 58.2664C163.905 58.4884 160.496 57.4672 158.071 55.2029C155.645 52.9385 154.432 49.7335 154.432 45.5879C154.432 42.6985 155.039 39.9878 156.251 37.4559C157.464 34.882 159.137 32.8084 161.27 31.235C163.445 29.6594 165.891 28.803 168.61 28.6656C171.036 28.543 172.98 29.1776 174.444 30.5692C175.908 31.919 176.64 33.8292 176.64 36.2999C176.64 39.1893 175.594 41.7337 173.503 43.9332C171.454 46.0886 167.962 47.8982 163.027 49.362C164.072 51.2355 166.059 52.0982 168.986 51.9503C170.868 51.8551 173.001 51.0983 175.385 49.6797C177.811 48.2171 179.902 46.3736 181.658 44.1492C182.16 43.5375 182.725 43.2159 183.352 43.1842ZM167.543 34.8752C165.996 34.9534 164.679 35.9203 163.591 37.7759C162.546 39.6294 162.023 41.8333 162.023 44.3877V44.5133C164.49 43.8024 166.435 42.8247 167.857 41.5803C169.279 40.336 169.99 38.9391 169.99 37.3897C169.99 36.5941 169.76 35.9776 169.3 35.5402C168.882 35.0588 168.296 34.8371 167.543 34.8752ZM184.455 57.4498C182.866 57.5302 181.736 56.7497 181.067 55.1085C180.44 53.4652 180.126 50.801 180.126 47.116C180.126 41.6722 180.9 36.4615 182.447 31.4838C182.824 30.2504 183.43 29.3404 184.267 28.7537C185.145 28.1231 186.358 27.7687 187.905 27.6905C188.742 27.6482 189.327 27.7233 189.662 27.9158C189.996 28.1083 190.164 28.4976 190.164 29.0839C190.164 29.7539 189.85 31.2772 189.223 33.654C188.804 35.3501 188.47 36.8327 188.219 38.1016C187.968 39.3706 187.759 40.9305 187.592 42.7815C188.972 39.1105 190.519 36.101 192.234 33.753C193.949 31.4051 195.621 29.7084 197.252 28.6628C198.925 27.6151 200.452 27.0564 201.832 26.9867C204.55 26.8493 205.91 28.1416 205.91 30.8635C205.91 32.4966 205.45 35.4721 204.529 39.7899C203.735 43.4732 203.338 45.9011 203.338 47.0736C203.338 48.7486 203.944 49.5555 205.157 49.4942C205.993 49.4519 206.976 48.8998 208.105 47.8377C209.276 46.7316 210.824 44.9784 212.748 42.578C213.249 41.9664 213.814 41.6447 214.441 41.613C214.985 41.5856 215.403 41.8157 215.696 42.3034C216.031 42.789 216.198 43.4715 216.198 44.3509C216.198 46.0259 215.801 47.3441 215.006 48.3055C213.208 50.6158 211.263 52.5357 209.172 54.0651C207.122 55.5924 204.78 56.4227 202.146 56.5558C200.013 56.6636 198.403 56.1378 197.315 54.9784C196.228 53.777 195.684 52.0039 195.684 49.6589C195.684 48.4863 195.977 46.3778 196.562 43.3332C197.106 40.6675 197.378 38.8322 197.378 37.8272C197.378 37.1572 197.148 36.8338 196.688 36.8571C196.144 36.8845 195.37 37.6355 194.367 39.11C193.405 40.5405 192.401 42.4337 191.356 44.7897C190.352 47.1436 189.536 49.6136 188.909 52.1997C188.449 54.1911 187.905 55.5586 187.278 56.3022C186.692 57.0018 185.751 57.3843 184.455 57.4498ZM239.101 40.3668C239.645 40.3393 240.063 40.5695 240.356 41.0572C240.691 41.5428 240.858 42.2253 240.858 43.1046C240.858 44.7797 240.461 46.0979 239.666 47.0593C237.868 49.3696 235.902 51.2905 233.769 52.822C231.636 54.3536 229.189 55.1891 226.429 55.3286C217.898 55.7598 213.632 49.9662 213.632 37.948C213.632 36.1055 213.694 34.2388 213.82 32.3481L211.373 32.4717C210.119 32.5352 209.261 32.3482 208.801 31.9108C208.383 31.4713 208.174 30.749 208.174 29.744C208.174 27.399 209.115 26.1789 210.997 26.0838L214.573 25.9031C215.284 21.2609 216.371 16.9975 217.835 13.1128C219.299 9.22817 221.055 6.10341 223.104 3.73858C225.195 1.37163 227.433 0.127916 229.817 0.00744606C231.573 -0.0813239 232.953 0.623626 233.957 2.12229C234.961 3.62096 235.463 5.54281 235.463 7.88783C235.463 14.3786 232.744 20.1691 227.307 25.2595L234.334 24.9045C235.003 24.8707 235.484 24.9929 235.776 25.2713C236.069 25.5496 236.216 26.0866 236.216 26.8822C236.216 29.7716 233.853 31.3357 229.127 31.5746L221.473 31.9613C221.39 34.0593 221.348 35.6946 221.348 36.8671C221.348 41.2221 221.85 44.2537 222.853 45.9617C223.899 47.6677 225.53 48.4646 227.747 48.3526C229.545 48.2617 231.134 47.637 232.514 46.4785C233.894 45.32 235.526 43.6044 237.408 41.3318C237.909 40.7202 238.474 40.3985 239.101 40.3668ZM228.123 6.12311C227.496 6.15481 226.785 6.98637 225.99 8.61777C225.237 10.2053 224.505 12.4198 223.794 15.2614C223.125 18.059 222.561 21.1653 222.101 24.5805C224.568 22.3201 226.408 19.8402 227.621 17.1408C228.876 14.3974 229.503 11.9369 229.503 9.75937C229.503 7.28869 229.043 6.07661 228.123 6.12311ZM246.352 54.3218C243.884 54.4465 241.772 53.946 240.016 52.8204C238.301 51.6508 237.005 50.0832 236.126 48.1176C235.248 46.1519 234.809 44.0175 234.809 41.7144C234.809 38.5318 235.394 35.6757 236.566 33.1458C237.778 30.572 239.409 28.5424 241.459 27.0569C243.508 25.5296 245.808 24.7015 248.359 24.5725C250.827 24.4478 252.939 24.9692 254.695 26.1367C256.452 27.2624 257.769 28.808 258.648 30.7736C259.526 32.7393 259.965 34.8737 259.965 37.1768C259.965 40.3593 259.359 43.2375 258.146 45.8113C256.933 48.3433 255.281 50.374 253.19 51.9034C251.141 53.3889 248.861 54.195 246.352 54.3218ZM247.042 47.5031C248.464 47.4312 249.656 46.5963 250.618 44.9983C251.621 43.3982 252.123 41.1116 252.123 38.1384C252.123 35.8353 251.705 34.1186 250.869 32.9883C250.032 31.8581 249.028 31.3225 247.857 31.3817C246.352 31.4578 245.097 32.2959 244.093 33.896C243.132 35.4522 242.651 37.7377 242.651 40.7528C242.651 43.1397 243.069 44.8773 243.905 45.9657C244.742 47.054 245.787 47.5665 247.042 47.5031Z" fill="#111111"/>
</svg>
